<svg width="100%" viewBox="0 0 680 920" xmlns="http://www.w3.org/2000/svg" role="img">
<title>Why Did It Move - architecture diagram</title>
<desc>Batch files and streaming events feed ClickHouse, which stores raw events, auto-aggregated segment metrics, investigation history and chat logs. A FastAPI backend reads and writes ClickHouse to run detection, investigation, chat and LLM narration, tracing every LLM call to Langfuse. The backend serves a React frontend showing the metric tree, flagged anomalies, anomaly history and investigation detail, which exports a client-generated PDF report.</desc>
<defs>
<marker id="arrow" viewBox="0 0 10 10" refX="8" refY="5" markerWidth="6" markerHeight="6" orient="auto-start-reverse"><path d="M2 1L8 5L2 9" fill="none" stroke="context-stroke" stroke-width="1.5" stroke-linecap="round" stroke-linejoin="round"/></marker>
</defs>
<style>
text{font-family:-apple-system,Segoe UI,Roboto,Helvetica,Arial,sans-serif}
.t{font-size:14px;fill:#2C2C2A}
.th{font-size:14px;font-weight:500;fill:#2C2C2A}
.ts{font-size:12px;fill:#5F5E5A}
rect{stroke-width:1}
.arr{stroke:#5F5E5A;stroke-width:1.3;fill:none}
.arrd{stroke:#5F5E5A;stroke-width:1.3;fill:none;stroke-dasharray:4 3}
.wrap{fill:#ffffff;stroke:#888780;stroke-width:1.3;stroke-dasharray:5 4}
.gy rect{fill:#F1EFE8;stroke:#888780}.gy .th{fill:#444441}.gy .ts{fill:#5F5E5A}
.co rect{fill:#FAECE7;stroke:#D85A30}.co .th{fill:#712B13}.co .ts{fill:#993C1D}
.pu rect{fill:#EEEDFE;stroke:#7F77DD}.pu .th{fill:#3C3489}.pu .ts{fill:#534AB7}
.te rect{fill:#E1F5EE;stroke:#1D9E75}.te .th{fill:#085041}.te .ts{fill:#0F6E56}
.pk rect{fill:#FBEAF0;stroke:#D4537E}.pk .th{fill:#72243E}.pk .ts{fill:#993556}
</style>

<g class="gy">
<rect x="100" y="40" width="230" height="60" rx="4"/>
<text class="th" x="215" y="63" text-anchor="middle">Batch files</text>
<text class="ts" x="215" y="81" text-anchor="middle">Parquet/CSV via bulk loader</text>
<rect x="350" y="40" width="230" height="60" rx="4"/>
<text class="th" x="465" y="63" text-anchor="middle">Streaming events</text>
<text class="ts" x="465" y="81" text-anchor="middle">Live HTTP POST to backend</text>
</g>

<line class="arr" x1="215" y1="100" x2="215" y2="122" marker-end="url(#arrow)"/>
<line class="arr" x1="465" y1="100" x2="465" y2="122" marker-end="url(#arrow)"/>

<rect class="wrap" x="40" y="124" width="600" height="202" rx="8" style="stroke:#993C1D"/>
<text class="th" x="340" y="142" text-anchor="middle" style="fill:#712B13">ClickHouse - primary database</text>
<g class="co">
<rect x="100" y="155" width="230" height="55" rx="4"/>
<text class="th" x="215" y="176" text-anchor="middle">Raw events</text>
<text class="ts" x="215" y="194" text-anchor="middle">ad_events table, MergeTree</text>
<rect x="350" y="155" width="230" height="55" rx="4"/>
<text class="th" x="465" y="176" text-anchor="middle">Segment metrics</text>
<text class="ts" x="465" y="194" text-anchor="middle">Materialized view, auto-agg</text>
<rect x="100" y="225" width="230" height="55" rx="4"/>
<text class="th" x="215" y="246" text-anchor="middle">Investigations</text>
<text class="ts" x="215" y="264" text-anchor="middle">Diagnosis history log</text>
<rect x="350" y="225" width="230" height="55" rx="4"/>
<text class="th" x="465" y="246" text-anchor="middle">Chat log</text>
<text class="ts" x="465" y="264" text-anchor="middle">Follow-up Q&amp;A history</text>
</g>
<text class="ts" x="340" y="298" text-anchor="middle">Access: ch_admin (write) &#183; ro (read-only, LLM-facing)</text>

<line class="arr" x1="340" y1="326" x2="340" y2="348" marker-end="url(#arrow)"/>

<rect class="wrap" x="40" y="350" width="600" height="172" rx="8" style="stroke:#534AB7"/>
<text class="th" x="340" y="368" text-anchor="middle" style="fill:#3C3489">Backend - FastAPI (Python)</text>
<g class="pu">
<rect x="100" y="381" width="230" height="55" rx="4"/>
<text class="th" x="215" y="402" text-anchor="middle">Detection</text>
<text class="ts" x="215" y="420" text-anchor="middle">Dynamic threshold calc</text>
<rect x="350" y="381" width="230" height="55" rx="4"/>
<text class="th" x="465" y="402" text-anchor="middle">Investigation</text>
<text class="ts" x="465" y="420" text-anchor="middle">Segment ranking, drill-down</text>
<rect x="100" y="451" width="230" height="55" rx="4"/>
<text class="th" x="215" y="472" text-anchor="middle">Ask / chat</text>
<text class="ts" x="215" y="490" text-anchor="middle">Context-aware follow-ups</text>
<rect x="350" y="451" width="230" height="55" rx="4"/>
<text class="th" x="465" y="472" text-anchor="middle">LLM narration</text>
<text class="ts" x="465" y="490" text-anchor="middle">Claude / GPT / Gemini</text>
</g>

<line class="arrd" x1="515" y1="522" x2="515" y2="544" marker-end="url(#arrow)"/>
<line class="arr" x1="340" y1="522" x2="340" y2="632" marker-end="url(#arrow)"/>
<text class="ts" x="335" y="580" text-anchor="end">REST API (JSON)</text>

<g class="te">
<rect x="400" y="546" width="230" height="64" rx="4"/>
<text class="th" x="515" y="572" text-anchor="middle">Langfuse</text>
<text class="ts" x="515" y="590" text-anchor="middle">LLM observability &amp; tracing</text>
</g>

<rect class="wrap" x="40" y="634" width="600" height="172" rx="8" style="stroke:#993556"/>
<text class="th" x="340" y="652" text-anchor="middle" style="fill:#72243E">Frontend - React + Vite + Tailwind</text>
<g class="pk">
<rect x="100" y="665" width="230" height="55" rx="4"/>
<text class="th" x="215" y="686" text-anchor="middle">Metric tree</text>
<text class="ts" x="215" y="704" text-anchor="middle">All metrics at a glance</text>
<rect x="350" y="665" width="230" height="55" rx="4"/>
<text class="th" x="465" y="686" text-anchor="middle">Flagged anomalies</text>
<text class="ts" x="465" y="704" text-anchor="middle">Auto-ranked by deviation</text>
<rect x="100" y="735" width="230" height="55" rx="4"/>
<text class="th" x="215" y="756" text-anchor="middle">Anomaly history</text>
<text class="ts" x="215" y="774" text-anchor="middle">Timeline with thresholds</text>
<rect x="350" y="735" width="230" height="55" rx="4"/>
<text class="th" x="465" y="756" text-anchor="middle">Investigation detail</text>
<text class="ts" x="465" y="774" text-anchor="middle">Diagnosis, charts, chat</text>
</g>

<line class="arr" x1="340" y1="806" x2="340" y2="828" marker-end="url(#arrow)"/>

<g class="gy">
<rect x="230" y="830" width="220" height="50" rx="4"/>
<text class="th" x="340" y="852" text-anchor="middle">PDF report</text>
<text class="ts" x="340" y="870" text-anchor="middle">Client-side generated PDF</text>
</g>
</svg>
